<?xml version="1.0" encoding="utf-8" ?>
<svg baseProfile="full" height="280px" preserveAspectRatio="xMidYMid meet" style="font-family: times, serif; font-weight:normal; font-style: normal; font-size: 16px;" version="1.1" viewBox="0,0,216.0,280.0" width="216px" xmlns="http://www.w3.org/2000/svg" xmlns:ev="http://www.w3.org/2001/xml-events" xmlns:xlink="http://www.w3.org/1999/xlink"><defs /><svg width="100%" x="0" y="0em"><defs /><text text-anchor="middle" x="50%" y="1em">TP</text></svg><svg width="11.1111%" x="0%" y="3em"><defs /><svg width="100%" x="0" y="0em"><defs /><text text-anchor="middle" x="50%" y="1em">T</text></svg></svg><line stroke="black" x1="50%" x2="5.55556%" y1="1.2em" y2="3em" /><svg width="88.8889%" x="11.1111%" y="3em"><defs /><svg width="100%" x="0" y="0em"><defs /><text text-anchor="middle" x="50%" y="1em">AspP</text></svg><svg width="79.1667%" x="0%" y="3em"><defs /><svg width="100%" x="0" y="0em"><defs /><text text-anchor="middle" x="50%" y="1em">RecipP</text></svg><svg width="63.1579%" x="0%" y="3em"><defs /><svg width="100%" x="0" y="0em"><defs /><text text-anchor="middle" x="50%" y="1em">VoiceP</text></svg><svg width="41.6667%" x="0%" y="3em"><defs /><svg width="100%" x="0" y="0em"><defs /><text text-anchor="middle" x="50%" y="1em">VP</text></svg><svg width="100%" x="0%" y="3em"><defs /><svg width="100%" x="0" y="0em"><defs /><text text-anchor="middle" x="50%" y="1em">V</text><text text-anchor="middle" x="50%" y="2em">lim</text></svg></svg><line stroke="black" x1="50%" x2="50%" y1="1.2em" y2="3em" /></svg><line stroke="black" x1="50%" x2="20.8333%" y1="1.2em" y2="3em" /><svg width="58.3333%" x="41.6667%" y="3em"><defs /><svg width="100%" x="0" y="0em"><defs /><text text-anchor="middle" x="50%" y="1em">Voice</text></svg></svg><line stroke="black" x1="50%" x2="70.8333%" y1="1.2em" y2="3em" /></svg><line stroke="black" x1="50%" x2="31.5789%" y1="1.2em" y2="3em" /><svg width="36.8421%" x="63.1579%" y="3em"><defs /><svg width="100%" x="0" y="0em"><defs /><text text-anchor="middle" x="50%" y="1em">Recip</text></svg></svg><line stroke="black" x1="50%" x2="81.5789%" y1="1.2em" y2="3em" /></svg><line stroke="black" x1="50%" x2="39.5833%" y1="1.2em" y2="3em" /><svg width="20.8333%" x="79.1667%" y="3em"><defs /><svg width="100%" x="0" y="0em"><defs /><text text-anchor="middle" x="50%" y="1em">Asp</text></svg></svg><line stroke="black" x1="50%" x2="89.5833%" y1="1.2em" y2="3em" /></svg><line stroke="black" x1="50%" x2="55.5556%" y1="1.2em" y2="3em" /></svg>