<?xml version="1.0" encoding="utf-8" ?>
<svg baseProfile="full" height="344px" preserveAspectRatio="xMidYMid meet" style="font-family: times, serif; font-weight:normal; font-style: normal; font-size: 16px;" version="1.1" viewBox="0,0,264.0,344.0" width="264px" xmlns="http://www.w3.org/2000/svg" xmlns:ev="http://www.w3.org/2001/xml-events" xmlns:xlink="http://www.w3.org/1999/xlink"><defs /><svg width="100%" x="0" y="0em"><defs /><text text-anchor="middle" x="50%" y="1em">TP</text></svg><svg width="9.09091%" x="0%" y="3em"><defs /><svg width="100%" x="0" y="0em"><defs /><text text-anchor="middle" x="50%" y="1em">T</text></svg></svg><line stroke="black" x1="50%" x2="4.54545%" y1="1.2em" y2="3em" /><svg width="90.9091%" x="9.09091%" y="3em"><defs /><svg width="100%" x="0" y="0em"><defs /><text text-anchor="middle" x="50%" y="1em">AspP</text></svg><svg width="83.3333%" x="0%" y="3em"><defs /><svg width="100%" x="0" y="0em"><defs /><text text-anchor="middle" x="50%" y="1em">RecipP</text></svg><svg width="72%" x="0%" y="3em"><defs /><svg width="100%" x="0" y="0em"><defs /><text text-anchor="middle" x="50%" y="1em">VoiceP</text></svg><svg width="61.1111%" x="0%" y="3em"><defs /><svg width="100%" x="0" y="0em"><defs /><text text-anchor="middle" x="50%" y="1em">REDP</text></svg><svg width="54.5455%" x="0%" y="3em"><defs /><svg width="100%" x="0" y="0em"><defs /><text text-anchor="middle" x="50%" y="1em">RED</text><text text-anchor="middle" x="50%" y="2em">lima</text></svg></svg><line stroke="black" x1="50%" x2="27.2727%" y1="1.2em" y2="3em" /><svg width="45.4545%" x="54.5455%" y="3em"><defs /><svg width="100%" x="0" y="0.5em"><defs /><text text-anchor="middle" x="50%" y="1em">VP</text></svg><svg width="100%" x="0%" y="4em"><defs /><svg width="100%" x="0" y="0em"><defs /><text text-anchor="middle" x="50%" y="1em">V</text><text text-anchor="middle" x="50%" y="2em">lim</text></svg></svg><line stroke="black" x1="50%" x2="50%" y1="1.7em" y2="4em" /></svg><line stroke="black" x1="50%" x2="77.2727%" y1="1.2em" y2="3.5em" /></svg><line stroke="black" x1="50%" x2="30.5556%" y1="1.2em" y2="3em" /><svg width="38.8889%" x="61.1111%" y="3em"><defs /><svg width="100%" x="0" y="0em"><defs /><text text-anchor="middle" x="50%" y="1em">Voice</text></svg></svg><line stroke="black" x1="50%" x2="80.5556%" y1="1.2em" y2="3em" /></svg><line stroke="black" x1="50%" x2="36%" y1="1.2em" y2="3em" /><svg width="28%" x="72%" y="3em"><defs /><svg width="100%" x="0" y="0em"><defs /><text text-anchor="middle" x="50%" y="1em">Recip</text></svg></svg><line stroke="black" x1="50%" x2="86%" y1="1.2em" y2="3em" /></svg><line stroke="black" x1="50%" x2="41.6667%" y1="1.2em" y2="3em" /><svg width="16.6667%" x="83.3333%" y="3em"><defs /><svg width="100%" x="0" y="0em"><defs /><text text-anchor="middle" x="50%" y="1em">Asp</text></svg></svg><line stroke="black" x1="50%" x2="91.6667%" y1="1.2em" y2="3em" /></svg><line stroke="black" x1="50%" x2="54.5455%" y1="1.2em" y2="3em" /></svg>