<?xml version="1.0" encoding="utf-8" ?>
<svg baseProfile="full" height="408px" preserveAspectRatio="xMidYMid meet" style="font-family: times, serif; font-weight:normal; font-style: normal; font-size: 16px;" version="1.1" viewBox="0,0,296.0,408.0" width="296px" xmlns="http://www.w3.org/2000/svg" xmlns:ev="http://www.w3.org/2001/xml-events" xmlns:xlink="http://www.w3.org/1999/xlink"><defs /><svg width="100%" x="0" y="0em"><defs /><text text-anchor="middle" x="50%" y="1em">TP</text></svg><svg width="8.10811%" x="0%" y="3em"><defs /><svg width="100%" x="0" y="0em"><defs /><text text-anchor="middle" x="50%" y="1em">T</text></svg></svg><line stroke="black" x1="50%" x2="4.05405%" y1="1.2em" y2="3em" /><svg width="91.8919%" x="8.10811%" y="3em"><defs /><svg width="100%" x="0" y="0em"><defs /><text text-anchor="middle" x="50%" y="1em">AspP</text></svg><svg width="85.2941%" x="0%" y="3em"><defs /><svg width="100%" x="0" y="0.5em"><defs /><text text-anchor="middle" x="50%" y="1em">REDP</text></svg><svg width="34.4828%" x="0%" y="4em"><defs /><svg width="100%" x="0" y="0em"><defs /><text text-anchor="middle" x="50%" y="1em">RED</text><text text-anchor="middle" x="50%" y="2em">limilana</text></svg></svg><line stroke="black" x1="50%" x2="17.2414%" y1="1.7em" y2="4em" /><svg width="65.5172%" x="34.4828%" y="4em"><defs /><svg width="100%" x="0" y="0.5em"><defs /><text text-anchor="middle" x="50%" y="1em">RecipP</text></svg><svg width="63.1579%" x="0%" y="4em"><defs /><svg width="100%" x="0" y="0.5em"><defs /><text text-anchor="middle" x="50%" y="1em">VoiceP</text></svg><svg width="41.6667%" x="0%" y="4em"><defs /><svg width="100%" x="0" y="1em"><defs /><text text-anchor="middle" x="50%" y="1em">VP</text></svg><svg width="100%" x="0%" y="5em"><defs /><svg width="100%" x="0" y="0em"><defs /><text text-anchor="middle" x="50%" y="1em">V</text><text text-anchor="middle" x="50%" y="2em">lim</text></svg></svg><line stroke="black" x1="50%" x2="50%" y1="2.2em" y2="5em" /></svg><line stroke="black" x1="50%" x2="20.8333%" y1="1.7em" y2="5em" /><svg width="58.3333%" x="41.6667%" y="4em"><defs /><svg width="100%" x="0" y="0em"><defs /><text text-anchor="middle" x="50%" y="1em">Voice</text><text text-anchor="middle" x="50%" y="2em">Appl</text><text text-anchor="middle" x="50%" y="3em">il</text></svg></svg><line stroke="black" x1="50%" x2="70.8333%" y1="1.7em" y2="4em" /></svg><line stroke="black" x1="50%" x2="31.5789%" y1="1.7em" y2="4.5em" /><svg width="36.8421%" x="63.1579%" y="4em"><defs /><svg width="100%" x="0" y="0em"><defs /><text text-anchor="middle" x="50%" y="1em">Recip</text><text text-anchor="middle" x="50%" y="2em">an</text></svg></svg><line stroke="black" x1="50%" x2="81.5789%" y1="1.7em" y2="4em" /></svg><line stroke="black" x1="50%" x2="67.2414%" y1="1.7em" y2="4.5em" /></svg><line stroke="black" x1="50%" x2="42.6471%" y1="1.2em" y2="3.5em" /><svg width="14.7059%" x="85.2941%" y="3em"><defs /><svg width="100%" x="0" y="0em"><defs /><text text-anchor="middle" x="50%" y="1em">Asp</text><text text-anchor="middle" x="50%" y="2em">a</text></svg></svg><line stroke="black" x1="50%" x2="92.6471%" y1="1.2em" y2="3em" /></svg><line stroke="black" x1="50%" x2="54.0541%" y1="1.2em" y2="3em" /></svg>