<?xml version="1.0" encoding="utf-8" ?>
<svg baseProfile="full" height="376px" preserveAspectRatio="xMidYMid meet" style="font-family: times, serif; font-weight:normal; font-style: normal; font-size: 16px;" version="1.1" viewBox="0,0,280.0,376.0" width="280px" xmlns="http://www.w3.org/2000/svg" xmlns:ev="http://www.w3.org/2001/xml-events" xmlns:xlink="http://www.w3.org/1999/xlink"><defs /><svg width="100%" x="0" y="0em"><defs /><text text-anchor="middle" x="50%" y="1em">TP</text></svg><svg width="8.57143%" x="0%" y="3em"><defs /><svg width="100%" x="0" y="0em"><defs /><text text-anchor="middle" x="50%" y="1em">T</text></svg></svg><line stroke="black" x1="50%" x2="4.28571%" y1="1.2em" y2="3em" /><svg width="91.4286%" x="8.57143%" y="3em"><defs /><svg width="100%" x="0" y="0em"><defs /><text text-anchor="middle" x="50%" y="1em">AspP</text></svg><svg width="84.375%" x="0%" y="3em"><defs /><svg width="100%" x="0" y="0em"><defs /><text text-anchor="middle" x="50%" y="1em">RecipP</text></svg><svg width="74.0741%" x="0%" y="3em"><defs /><svg width="100%" x="0" y="0em"><defs /><text text-anchor="middle" x="50%" y="1em">REDP</text></svg><svg width="40%" x="0%" y="3em"><defs /><svg width="100%" x="0" y="0em"><defs /><text text-anchor="middle" x="50%" y="1em">RED</text><text text-anchor="middle" x="50%" y="2em">limila</text></svg></svg><line stroke="black" x1="50%" x2="20%" y1="1.2em" y2="3em" /><svg width="60%" x="40%" y="3em"><defs /><svg width="100%" x="0" y="0.5em"><defs /><text text-anchor="middle" x="50%" y="1em">VoiceP</text></svg><svg width="41.6667%" x="0%" y="4em"><defs /><svg width="100%" x="0" y="1em"><defs /><text text-anchor="middle" x="50%" y="1em">VP</text></svg><svg width="100%" x="0%" y="5em"><defs /><svg width="100%" x="0" y="0em"><defs /><text text-anchor="middle" x="50%" y="1em">V</text><text text-anchor="middle" x="50%" y="2em">lim</text></svg></svg><line stroke="black" x1="50%" x2="50%" y1="2.2em" y2="5em" /></svg><line stroke="black" x1="50%" x2="20.8333%" y1="1.7em" y2="5em" /><svg width="58.3333%" x="41.6667%" y="4em"><defs /><svg width="100%" x="0" y="0em"><defs /><text text-anchor="middle" x="50%" y="1em">Voice</text><text text-anchor="middle" x="50%" y="2em">Appl</text><text text-anchor="middle" x="50%" y="3em">il</text></svg></svg><line stroke="black" x1="50%" x2="70.8333%" y1="1.7em" y2="4em" /></svg><line stroke="black" x1="50%" x2="70%" y1="1.2em" y2="3.5em" /></svg><line stroke="black" x1="50%" x2="37.037%" y1="1.2em" y2="3em" /><svg width="25.9259%" x="74.0741%" y="3em"><defs /><svg width="100%" x="0" y="0em"><defs /><text text-anchor="middle" x="50%" y="1em">Recip</text></svg></svg><line stroke="black" x1="50%" x2="87.037%" y1="1.2em" y2="3em" /></svg><line stroke="black" x1="50%" x2="42.1875%" y1="1.2em" y2="3em" /><svg width="15.625%" x="84.375%" y="3em"><defs /><svg width="100%" x="0" y="0em"><defs /><text text-anchor="middle" x="50%" y="1em">Asp</text></svg></svg><line stroke="black" x1="50%" x2="92.1875%" y1="1.2em" y2="3em" /></svg><line stroke="black" x1="50%" x2="54.2857%" y1="1.2em" y2="3em" /></svg>