<?xml version="1.0" encoding="utf-8" ?>
<svg baseProfile="full" height="312px" preserveAspectRatio="xMidYMid meet" style="font-family: times, serif; font-weight:normal; font-style: normal; font-size: 16px;" version="1.1" viewBox="0,0,176.0,312.0" width="176px" xmlns="http://www.w3.org/2000/svg" xmlns:ev="http://www.w3.org/2001/xml-events" xmlns:xlink="http://www.w3.org/1999/xlink"><defs /><svg width="100%" x="0" y="0em"><defs /><text text-anchor="middle" x="50%" y="1em">TP</text></svg><svg width="22.7273%" x="0%" y="3em"><defs /><svg width="100%" x="0" y="0em"><defs /><text text-anchor="middle" x="50%" y="1em">T</text><text text-anchor="middle" x="50%" y="2em">3sg</text><text text-anchor="middle" x="50%" y="3em">a</text></svg></svg><line stroke="black" x1="50%" x2="11.3636%" y1="1.2em" y2="3em" /><svg width="77.2727%" x="22.7273%" y="3em"><defs /><svg width="100%" x="0" y="1em"><defs /><text text-anchor="middle" x="50%" y="1em">AspP</text></svg><svg width="64.7059%" x="0%" y="5em"><defs /><svg width="100%" x="0" y="1em"><defs /><text text-anchor="middle" x="50%" y="1em">REDP</text></svg><svg width="54.5455%" x="0%" y="5em"><defs /><svg width="100%" x="0" y="0em"><defs /><text text-anchor="middle" x="50%" y="1em">RED</text><text text-anchor="middle" x="50%" y="2em">lola</text></svg></svg><line stroke="black" x1="50%" x2="27.2727%" y1="2.2em" y2="5em" /><svg width="45.4545%" x="54.5455%" y="5em"><defs /><svg width="100%" x="0" y="0.5em"><defs /><text text-anchor="middle" x="50%" y="1em">VP</text></svg><svg width="100%" x="0%" y="4em"><defs /><svg width="100%" x="0" y="0em"><defs /><text text-anchor="middle" x="50%" y="1em">V</text><text text-anchor="middle" x="50%" y="2em">loz</text></svg></svg><line stroke="black" x1="50%" x2="50%" y1="1.7em" y2="4em" /></svg><line stroke="black" x1="50%" x2="77.2727%" y1="2.2em" y2="5.5em" /></svg><line stroke="black" x1="50%" x2="32.3529%" y1="2.2em" y2="6em" /><svg width="35.2941%" x="64.7059%" y="5em"><defs /><svg width="100%" x="0" y="0em"><defs /><text text-anchor="middle" x="50%" y="1em">Asp</text><text text-anchor="middle" x="50%" y="2em">perf</text><text text-anchor="middle" x="50%" y="3em">ile</text></svg></svg><line stroke="black" x1="50%" x2="82.3529%" y1="2.2em" y2="5em" /></svg><line stroke="black" x1="50%" x2="61.3636%" y1="1.2em" y2="4em" /></svg>