<?xml version="1.0" encoding="utf-8" ?>
<svg baseProfile="full" height="248px" preserveAspectRatio="xMidYMid meet" style="font-family: times, serif; font-weight:normal; font-style: normal; font-size: 16px;" version="1.1" viewBox="0,0,160.0,248.0" width="160px" xmlns="http://www.w3.org/2000/svg" xmlns:ev="http://www.w3.org/2001/xml-events" xmlns:xlink="http://www.w3.org/1999/xlink"><defs /><svg width="100%" x="0" y="0em"><defs /><text text-anchor="middle" x="50%" y="1em">MOODP</text></svg><svg width="70%" x="0%" y="3em"><defs /><svg width="100%" x="0" y="0em"><defs /><text text-anchor="middle" x="50%" y="1em">TP</text></svg><svg width="21.4286%" x="0%" y="3em"><defs /><svg width="100%" x="0" y="0em"><defs /><text text-anchor="middle" x="50%" y="1em">T</text></svg></svg><line stroke="black" x1="50%" x2="10.7143%" y1="1.2em" y2="3em" /><svg width="78.5714%" x="21.4286%" y="3em"><defs /><svg width="100%" x="0" y="0em"><defs /><text text-anchor="middle" x="50%" y="1em">vP</text></svg><svg width="72.7273%" x="0%" y="3em"><defs /><svg width="100%" x="0" y="0.5em"><defs /><text text-anchor="middle" x="50%" y="1em">VP</text></svg><svg width="100%" x="0%" y="4em"><defs /><svg width="100%" x="0" y="0em"><defs /><text text-anchor="middle" x="50%" y="1em">V</text><text text-anchor="middle" x="50%" y="2em">sebenz</text></svg></svg><line stroke="black" x1="50%" x2="50%" y1="1.7em" y2="4em" /></svg><line stroke="black" x1="50%" x2="36.3636%" y1="1.2em" y2="3.5em" /><svg width="27.2727%" x="72.7273%" y="3em"><defs /><svg width="100%" x="0" y="0em"><defs /><text text-anchor="middle" x="50%" y="1em">v</text><text text-anchor="middle" x="50%" y="2em">a</text></svg></svg><line stroke="black" x1="50%" x2="86.3636%" y1="1.2em" y2="3em" /></svg><line stroke="black" x1="50%" x2="60.7143%" y1="1.2em" y2="3em" /></svg><line stroke="black" x1="50%" x2="35%" y1="1.2em" y2="3em" /><svg width="30%" x="70%" y="3em"><defs /><svg width="100%" x="0" y="0em"><defs /><text text-anchor="middle" x="50%" y="1em">MOOD</text></svg></svg><line stroke="black" x1="50%" x2="85%" y1="1.2em" y2="3em" /></svg>