<?xml version="1.0" encoding="utf-8" ?>
<svg baseProfile="full" height="312px" preserveAspectRatio="xMidYMid meet" style="font-family: times, serif; font-weight:normal; font-style: normal; font-size: 16px;" version="1.1" viewBox="0,0,208.0,312.0" width="208px" xmlns="http://www.w3.org/2000/svg" xmlns:ev="http://www.w3.org/2001/xml-events" xmlns:xlink="http://www.w3.org/1999/xlink"><defs /><svg width="100%" x="0" y="0em"><defs /><text text-anchor="middle" x="50%" y="1em">MOODP</text></svg><svg width="53.8462%" x="0%" y="3em"><defs /><svg width="100%" x="0" y="1em"><defs /><text text-anchor="middle" x="50%" y="1em">TP</text></svg><svg width="35.7143%" x="0%" y="5em"><defs /><svg width="100%" x="0" y="0em"><defs /><text text-anchor="middle" x="50%" y="1em">T</text><text text-anchor="middle" x="50%" y="2em">2pl</text><text text-anchor="middle" x="50%" y="3em">ni</text></svg></svg><line stroke="black" x1="50%" x2="17.8571%" y1="2.2em" y2="5em" /><svg width="64.2857%" x="35.7143%" y="5em"><defs /><svg width="100%" x="0" y="1em"><defs /><text text-anchor="middle" x="50%" y="1em">vP</text></svg><svg width="66.6667%" x="0%" y="5em"><defs /><svg width="100%" x="0" y="0.5em"><defs /><text text-anchor="middle" x="50%" y="1em">VP</text></svg><svg width="100%" x="0%" y="4em"><defs /><svg width="100%" x="0" y="0em"><defs /><text text-anchor="middle" x="50%" y="1em">V</text><text text-anchor="middle" x="50%" y="2em">fund</text></svg></svg><line stroke="black" x1="50%" x2="50%" y1="1.7em" y2="4em" /></svg><line stroke="black" x1="50%" x2="33.3333%" y1="2.2em" y2="5.5em" /><svg width="33.3333%" x="66.6667%" y="5em"><defs /><svg width="100%" x="0" y="0em"><defs /><text text-anchor="middle" x="50%" y="1em">v</text><text text-anchor="middle" x="50%" y="2em">a</text></svg></svg><line stroke="black" x1="50%" x2="83.3333%" y1="2.2em" y2="5em" /></svg><line stroke="black" x1="50%" x2="67.8571%" y1="2.2em" y2="6em" /></svg><line stroke="black" x1="50%" x2="26.9231%" y1="1.2em" y2="4em" /><svg width="46.1538%" x="53.8462%" y="3em"><defs /><svg width="100%" x="0" y="0em"><defs /><text text-anchor="middle" x="50%" y="1em">MOOD</text><text text-anchor="middle" x="50%" y="2em">indicative</text><text text-anchor="middle" x="50%" y="3em" /></svg></svg><line stroke="black" x1="50%" x2="76.9231%" y1="1.2em" y2="3em" /></svg>