<?xml version="1.0" encoding="utf-8" ?>
<svg baseProfile="full" height="312px" preserveAspectRatio="xMidYMid meet" style="font-family: times, serif; font-weight:normal; font-style: normal; font-size: 16px;" version="1.1" viewBox="0,0,208.0,312.0" width="208px" xmlns="http://www.w3.org/2000/svg" xmlns:ev="http://www.w3.org/2001/xml-events" xmlns:xlink="http://www.w3.org/1999/xlink"><defs /><svg width="100%" x="0" y="0em"><defs /><text text-anchor="middle" x="50%" y="1em">MOODP</text></svg><svg width="50%" x="0%" y="3em"><defs /><svg width="100%" x="0" y="1em"><defs /><text text-anchor="middle" x="50%" y="1em">TP</text></svg><svg width="38.4615%" x="0%" y="5em"><defs /><svg width="100%" x="0" y="0em"><defs /><text text-anchor="middle" x="50%" y="1em">T</text><text text-anchor="middle" x="50%" y="2em">2pl</text><text text-anchor="middle" x="50%" y="3em">n</text></svg></svg><line stroke="black" x1="50%" x2="19.2308%" y1="2.2em" y2="5em" /><svg width="61.5385%" x="38.4615%" y="5em"><defs /><svg width="100%" x="0" y="1em"><defs /><text text-anchor="middle" x="50%" y="1em">vP</text></svg><svg width="62.5%" x="0%" y="5em"><defs /><svg width="100%" x="0" y="0.5em"><defs /><text text-anchor="middle" x="50%" y="1em">VP</text></svg><svg width="100%" x="0%" y="4em"><defs /><svg width="100%" x="0" y="0em"><defs /><text text-anchor="middle" x="50%" y="1em">V</text><text text-anchor="middle" x="50%" y="2em">enz</text></svg></svg><line stroke="black" x1="50%" x2="50%" y1="1.7em" y2="4em" /></svg><line stroke="black" x1="50%" x2="31.25%" y1="2.2em" y2="5.5em" /><svg width="37.5%" x="62.5%" y="5em"><defs /><svg width="100%" x="0" y="0em"><defs /><text text-anchor="middle" x="50%" y="1em">v</text><text text-anchor="middle" x="50%" y="2em" /></svg></svg><line stroke="black" x1="50%" x2="81.25%" y1="2.2em" y2="5em" /></svg><line stroke="black" x1="50%" x2="69.2308%" y1="2.2em" y2="6em" /></svg><line stroke="black" x1="50%" x2="25%" y1="1.2em" y2="4em" /><svg width="50%" x="50%" y="3em"><defs /><svg width="100%" x="0" y="0em"><defs /><text text-anchor="middle" x="50%" y="1em">MOOD</text><text text-anchor="middle" x="50%" y="2em">subjunctive</text><text text-anchor="middle" x="50%" y="3em">e</text></svg></svg><line stroke="black" x1="50%" x2="75%" y1="1.2em" y2="3em" /></svg>