<?xml version="1.0" encoding="utf-8" ?>
<svg baseProfile="full" height="312px" preserveAspectRatio="xMidYMid meet" style="font-family: times, serif; font-weight:normal; font-style: normal; font-size: 16px;" version="1.1" viewBox="0,0,208.0,312.0" width="208px" xmlns="http://www.w3.org/2000/svg" xmlns:ev="http://www.w3.org/2001/xml-events" xmlns:xlink="http://www.w3.org/1999/xlink"><defs /><svg width="100%" x="0" y="0em"><defs /><text text-anchor="middle" x="50%" y="1em">MOODP</text></svg><svg width="76.9231%" x="0%" y="3em"><defs /><svg width="100%" x="0" y="0em"><defs /><text text-anchor="middle" x="50%" y="1em">TP</text></svg><svg width="15%" x="0%" y="3em"><defs /><svg width="100%" x="0" y="0em"><defs /><text text-anchor="middle" x="50%" y="1em">T</text></svg></svg><line stroke="black" x1="50%" x2="7.5%" y1="1.2em" y2="3em" /><svg width="85%" x="15%" y="3em"><defs /><svg width="100%" x="0" y="0em"><defs /><text text-anchor="middle" x="50%" y="1em">REDP</text></svg><svg width="35.2941%" x="0%" y="3em"><defs /><svg width="100%" x="0" y="0em"><defs /><text text-anchor="middle" x="50%" y="1em">RED</text><text text-anchor="middle" x="50%" y="2em">sebe</text></svg></svg><line stroke="black" x1="50%" x2="17.6471%" y1="1.2em" y2="3em" /><svg width="64.7059%" x="35.2941%" y="3em"><defs /><svg width="100%" x="0" y="0.5em"><defs /><text text-anchor="middle" x="50%" y="1em">vP</text></svg><svg width="72.7273%" x="0%" y="4em"><defs /><svg width="100%" x="0" y="0.5em"><defs /><text text-anchor="middle" x="50%" y="1em">VP</text></svg><svg width="100%" x="0%" y="4em"><defs /><svg width="100%" x="0" y="0em"><defs /><text text-anchor="middle" x="50%" y="1em">V</text><text text-anchor="middle" x="50%" y="2em">sebenz</text></svg></svg><line stroke="black" x1="50%" x2="50%" y1="1.7em" y2="4em" /></svg><line stroke="black" x1="50%" x2="36.3636%" y1="1.7em" y2="4.5em" /><svg width="27.2727%" x="72.7273%" y="4em"><defs /><svg width="100%" x="0" y="0em"><defs /><text text-anchor="middle" x="50%" y="1em">v</text><text text-anchor="middle" x="50%" y="2em">a</text></svg></svg><line stroke="black" x1="50%" x2="86.3636%" y1="1.7em" y2="4em" /></svg><line stroke="black" x1="50%" x2="67.6471%" y1="1.2em" y2="3.5em" /></svg><line stroke="black" x1="50%" x2="57.5%" y1="1.2em" y2="3em" /></svg><line stroke="black" x1="50%" x2="38.4615%" y1="1.2em" y2="3em" /><svg width="23.0769%" x="76.9231%" y="3em"><defs /><svg width="100%" x="0" y="0em"><defs /><text text-anchor="middle" x="50%" y="1em">MOOD</text></svg></svg><line stroke="black" x1="50%" x2="88.4615%" y1="1.2em" y2="3em" /></svg>