<?xml version="1.0" encoding="utf-8" ?>
<svg baseProfile="full" height="280px" preserveAspectRatio="xMidYMid meet" style="font-family: times, serif; font-weight:normal; font-style: normal; font-size: 16px;" version="1.1" viewBox="0,0,200.0,280.0" width="200px" xmlns="http://www.w3.org/2000/svg" xmlns:ev="http://www.w3.org/2001/xml-events" xmlns:xlink="http://www.w3.org/1999/xlink"><defs /><svg width="100%" x="0" y="0em"><defs /><text text-anchor="middle" x="50%" y="1em">MOODP</text></svg><svg width="76%" x="0%" y="3em"><defs /><svg width="100%" x="0" y="0em"><defs /><text text-anchor="middle" x="50%" y="1em">TP</text></svg><svg width="15.7895%" x="0%" y="3em"><defs /><svg width="100%" x="0" y="0em"><defs /><text text-anchor="middle" x="50%" y="1em">T</text></svg></svg><line stroke="black" x1="50%" x2="7.89474%" y1="1.2em" y2="3em" /><svg width="84.2105%" x="15.7895%" y="3em"><defs /><svg width="100%" x="0" y="0em"><defs /><text text-anchor="middle" x="50%" y="1em">REDP</text></svg><svg width="31.25%" x="0%" y="3em"><defs /><svg width="100%" x="0" y="0em"><defs /><text text-anchor="middle" x="50%" y="1em">RED</text></svg></svg><line stroke="black" x1="50%" x2="15.625%" y1="1.2em" y2="3em" /><svg width="68.75%" x="31.25%" y="3em"><defs /><svg width="100%" x="0" y="0em"><defs /><text text-anchor="middle" x="50%" y="1em">vP</text></svg><svg width="72.7273%" x="0%" y="3em"><defs /><svg width="100%" x="0" y="0em"><defs /><text text-anchor="middle" x="50%" y="1em">VP</text></svg><svg width="100%" x="0%" y="3em"><defs /><svg width="100%" x="0" y="0em"><defs /><text text-anchor="middle" x="50%" y="1em">V</text><text text-anchor="middle" x="50%" y="2em">sebenz</text></svg></svg><line stroke="black" x1="50%" x2="50%" y1="1.2em" y2="3em" /></svg><line stroke="black" x1="50%" x2="36.3636%" y1="1.2em" y2="3em" /><svg width="27.2727%" x="72.7273%" y="3em"><defs /><svg width="100%" x="0" y="0em"><defs /><text text-anchor="middle" x="50%" y="1em">v</text></svg></svg><line stroke="black" x1="50%" x2="86.3636%" y1="1.2em" y2="3em" /></svg><line stroke="black" x1="50%" x2="65.625%" y1="1.2em" y2="3em" /></svg><line stroke="black" x1="50%" x2="57.8947%" y1="1.2em" y2="3em" /></svg><line stroke="black" x1="50%" x2="38%" y1="1.2em" y2="3em" /><svg width="24%" x="76%" y="3em"><defs /><svg width="100%" x="0" y="0em"><defs /><text text-anchor="middle" x="50%" y="1em">MOOD</text></svg></svg><line stroke="black" x1="50%" x2="88%" y1="1.2em" y2="3em" /></svg>