<?xml version="1.0" encoding="utf-8" ?>
<svg baseProfile="full" height="328px" preserveAspectRatio="xMidYMid meet" style="font-family: times, serif; font-weight:normal; font-style: normal; font-size: 16px;" version="1.1" viewBox="0,0,192.0,328.0" width="192px" xmlns="http://www.w3.org/2000/svg" xmlns:ev="http://www.w3.org/2001/xml-events" xmlns:xlink="http://www.w3.org/1999/xlink"><defs /><svg width="100%" x="0" y="0em"><defs /><text text-anchor="middle" x="50%" y="1em">MOODP</text></svg><svg width="75%" x="0%" y="3em"><defs /><svg width="100%" x="0" y="0em"><defs /><text text-anchor="middle" x="50%" y="1em">REDP</text></svg><svg width="27.7778%" x="0%" y="3em"><defs /><svg width="100%" x="0" y="0em"><defs /><text text-anchor="middle" x="50%" y="1em">RED</text></svg></svg><line stroke="black" x1="50%" x2="13.8889%" y1="1.2em" y2="3em" /><svg width="72.2222%" x="27.7778%" y="3em"><defs /><svg width="100%" x="0" y="0em"><defs /><text text-anchor="middle" x="50%" y="1em">TP</text></svg><svg width="38.4615%" x="0%" y="3em"><defs /><svg width="100%" x="0" y="0em"><defs /><text text-anchor="middle" x="50%" y="1em">T</text><text text-anchor="middle" x="50%" y="2em">1sg</text><text text-anchor="middle" x="50%" y="3em">ngi</text></svg></svg><line stroke="black" x1="50%" x2="19.2308%" y1="1.2em" y2="3em" /><svg width="61.5385%" x="38.4615%" y="3em"><defs /><svg width="100%" x="0" y="1em"><defs /><text text-anchor="middle" x="50%" y="1em">vP</text></svg><svg width="62.5%" x="0%" y="5em"><defs /><svg width="100%" x="0" y="0.5em"><defs /><text text-anchor="middle" x="50%" y="1em">VP</text></svg><svg width="100%" x="0%" y="4em"><defs /><svg width="100%" x="0" y="0em"><defs /><text text-anchor="middle" x="50%" y="1em">V</text><text text-anchor="middle" x="50%" y="2em">enz</text></svg></svg><line stroke="black" x1="50%" x2="50%" y1="1.7em" y2="4em" /></svg><line stroke="black" x1="50%" x2="31.25%" y1="2.2em" y2="5.5em" /><svg width="37.5%" x="62.5%" y="5em"><defs /><svg width="100%" x="0" y="0em"><defs /><text text-anchor="middle" x="50%" y="1em">v</text><text text-anchor="middle" x="50%" y="2em">a</text></svg></svg><line stroke="black" x1="50%" x2="81.25%" y1="2.2em" y2="5em" /></svg><line stroke="black" x1="50%" x2="69.2308%" y1="1.2em" y2="4em" /></svg><line stroke="black" x1="50%" x2="63.8889%" y1="1.2em" y2="3em" /></svg><line stroke="black" x1="50%" x2="37.5%" y1="1.2em" y2="3em" /><svg width="25%" x="75%" y="3em"><defs /><svg width="100%" x="0" y="0em"><defs /><text text-anchor="middle" x="50%" y="1em">MOOD</text></svg></svg><line stroke="black" x1="50%" x2="87.5%" y1="1.2em" y2="3em" /></svg>