<?xml version="1.0" encoding="utf-8" ?>
<svg baseProfile="full" height="376px" preserveAspectRatio="xMidYMid meet" style="font-family: times, serif; font-weight:normal; font-style: normal; font-size: 16px;" version="1.1" viewBox="0,0,264.0,376.0" width="264px" xmlns="http://www.w3.org/2000/svg" xmlns:ev="http://www.w3.org/2001/xml-events" xmlns:xlink="http://www.w3.org/1999/xlink"><defs /><svg width="100%" x="0" y="0em"><defs /><text text-anchor="middle" x="50%" y="1em">MOODP</text></svg><svg width="60.6061%" x="0%" y="3em"><defs /><svg width="100%" x="0" y="1em"><defs /><text text-anchor="middle" x="50%" y="1em">TP</text></svg><svg width="25%" x="0%" y="5em"><defs /><svg width="100%" x="0" y="0em"><defs /><text text-anchor="middle" x="50%" y="1em">T</text><text text-anchor="middle" x="50%" y="2em">2pl</text><text text-anchor="middle" x="50%" y="3em">n</text></svg></svg><line stroke="black" x1="50%" x2="12.5%" y1="2.2em" y2="5em" /><svg width="75%" x="25%" y="5em"><defs /><svg width="100%" x="0" y="1em"><defs /><text text-anchor="middle" x="50%" y="1em">REDP</text></svg><svg width="46.6667%" x="0%" y="5em"><defs /><svg width="100%" x="0" y="0em"><defs /><text text-anchor="middle" x="50%" y="1em">RED</text><text text-anchor="middle" x="50%" y="2em">enzay</text></svg></svg><line stroke="black" x1="50%" x2="23.3333%" y1="2.2em" y2="5em" /><svg width="53.3333%" x="46.6667%" y="5em"><defs /><svg width="100%" x="0" y="0.5em"><defs /><text text-anchor="middle" x="50%" y="1em">vP</text></svg><svg width="62.5%" x="0%" y="4em"><defs /><svg width="100%" x="0" y="0.5em"><defs /><text text-anchor="middle" x="50%" y="1em">VP</text></svg><svg width="100%" x="0%" y="4em"><defs /><svg width="100%" x="0" y="0em"><defs /><text text-anchor="middle" x="50%" y="1em">V</text><text text-anchor="middle" x="50%" y="2em">enz</text></svg></svg><line stroke="black" x1="50%" x2="50%" y1="1.7em" y2="4em" /></svg><line stroke="black" x1="50%" x2="31.25%" y1="1.7em" y2="4.5em" /><svg width="37.5%" x="62.5%" y="4em"><defs /><svg width="100%" x="0" y="0em"><defs /><text text-anchor="middle" x="50%" y="1em">v</text><text text-anchor="middle" x="50%" y="2em" /></svg></svg><line stroke="black" x1="50%" x2="81.25%" y1="1.7em" y2="4em" /></svg><line stroke="black" x1="50%" x2="73.3333%" y1="2.2em" y2="5.5em" /></svg><line stroke="black" x1="50%" x2="62.5%" y1="2.2em" y2="6em" /></svg><line stroke="black" x1="50%" x2="30.303%" y1="1.2em" y2="4em" /><svg width="39.3939%" x="60.6061%" y="3em"><defs /><svg width="100%" x="0" y="0em"><defs /><text text-anchor="middle" x="50%" y="1em">MOOD</text><text text-anchor="middle" x="50%" y="2em">subjunctive</text><text text-anchor="middle" x="50%" y="3em">e</text></svg></svg><line stroke="black" x1="50%" x2="80.303%" y1="1.2em" y2="3em" /></svg>