<?xml version="1.0" encoding="utf-8" ?>
<svg baseProfile="full" height="376px" preserveAspectRatio="xMidYMid meet" style="font-family: times, serif; font-weight:normal; font-style: normal; font-size: 16px;" version="1.1" viewBox="0,0,272.0,376.0" width="272px" xmlns="http://www.w3.org/2000/svg" xmlns:ev="http://www.w3.org/2001/xml-events" xmlns:xlink="http://www.w3.org/1999/xlink"><defs /><svg width="100%" x="0" y="0em"><defs /><text text-anchor="middle" x="50%" y="1em">MOODP</text></svg><svg width="61.7647%" x="0%" y="3em"><defs /><svg width="100%" x="0" y="1em"><defs /><text text-anchor="middle" x="50%" y="1em">TP</text></svg><svg width="23.8095%" x="0%" y="5em"><defs /><svg width="100%" x="0" y="0em"><defs /><text text-anchor="middle" x="50%" y="1em">T</text><text text-anchor="middle" x="50%" y="2em">1pl</text><text text-anchor="middle" x="50%" y="3em">si</text></svg></svg><line stroke="black" x1="50%" x2="11.9048%" y1="2.2em" y2="5em" /><svg width="76.1905%" x="23.8095%" y="5em"><defs /><svg width="100%" x="0" y="1em"><defs /><text text-anchor="middle" x="50%" y="1em">REDP</text></svg><svg width="43.75%" x="0%" y="5em"><defs /><svg width="100%" x="0" y="0em"><defs /><text text-anchor="middle" x="50%" y="1em">RED</text><text text-anchor="middle" x="50%" y="2em">funda</text></svg></svg><line stroke="black" x1="50%" x2="21.875%" y1="2.2em" y2="5em" /><svg width="56.25%" x="43.75%" y="5em"><defs /><svg width="100%" x="0" y="0.5em"><defs /><text text-anchor="middle" x="50%" y="1em">vP</text></svg><svg width="66.6667%" x="0%" y="4em"><defs /><svg width="100%" x="0" y="0.5em"><defs /><text text-anchor="middle" x="50%" y="1em">VP</text></svg><svg width="100%" x="0%" y="4em"><defs /><svg width="100%" x="0" y="0em"><defs /><text text-anchor="middle" x="50%" y="1em">V</text><text text-anchor="middle" x="50%" y="2em">fund</text></svg></svg><line stroke="black" x1="50%" x2="50%" y1="1.7em" y2="4em" /></svg><line stroke="black" x1="50%" x2="33.3333%" y1="1.7em" y2="4.5em" /><svg width="33.3333%" x="66.6667%" y="4em"><defs /><svg width="100%" x="0" y="0em"><defs /><text text-anchor="middle" x="50%" y="1em">v</text><text text-anchor="middle" x="50%" y="2em" /></svg></svg><line stroke="black" x1="50%" x2="83.3333%" y1="1.7em" y2="4em" /></svg><line stroke="black" x1="50%" x2="71.875%" y1="2.2em" y2="5.5em" /></svg><line stroke="black" x1="50%" x2="61.9048%" y1="2.2em" y2="6em" /></svg><line stroke="black" x1="50%" x2="30.8824%" y1="1.2em" y2="4em" /><svg width="38.2353%" x="61.7647%" y="3em"><defs /><svg width="100%" x="0" y="0em"><defs /><text text-anchor="middle" x="50%" y="1em">MOOD</text><text text-anchor="middle" x="50%" y="2em">subjunctive</text><text text-anchor="middle" x="50%" y="3em">e</text></svg></svg><line stroke="black" x1="50%" x2="80.8824%" y1="1.2em" y2="3em" /></svg>