<?xml version="1.0" encoding="utf-8" ?>
<svg baseProfile="full" height="344px" preserveAspectRatio="xMidYMid meet" style="font-family: times, serif; font-weight:normal; font-style: normal; font-size: 16px;" version="1.1" viewBox="0,0,224.0,344.0" width="224px" xmlns="http://www.w3.org/2000/svg" xmlns:ev="http://www.w3.org/2001/xml-events" xmlns:xlink="http://www.w3.org/1999/xlink"><defs /><svg width="100%" x="0" y="0em"><defs /><text text-anchor="middle" x="50%" y="1em">MOODP</text></svg><svg width="78.5714%" x="0%" y="3em"><defs /><svg width="100%" x="0" y="0em"><defs /><text text-anchor="middle" x="50%" y="1em">REDP</text></svg><svg width="40.9091%" x="0%" y="3em"><defs /><svg width="100%" x="0" y="0em"><defs /><text text-anchor="middle" x="50%" y="1em">RED</text><text text-anchor="middle" x="50%" y="2em">ngiakha</text></svg></svg><line stroke="black" x1="50%" x2="20.4545%" y1="1.2em" y2="3em" /><svg width="59.0909%" x="40.9091%" y="3em"><defs /><svg width="100%" x="0" y="0.5em"><defs /><text text-anchor="middle" x="50%" y="1em">TP</text></svg><svg width="38.4615%" x="0%" y="4em"><defs /><svg width="100%" x="0" y="0em"><defs /><text text-anchor="middle" x="50%" y="1em">T</text><text text-anchor="middle" x="50%" y="2em">1sg</text><text text-anchor="middle" x="50%" y="3em">ngi</text></svg></svg><line stroke="black" x1="50%" x2="19.2308%" y1="1.7em" y2="4em" /><svg width="61.5385%" x="38.4615%" y="4em"><defs /><svg width="100%" x="0" y="1em"><defs /><text text-anchor="middle" x="50%" y="1em">vP</text></svg><svg width="62.5%" x="0%" y="5em"><defs /><svg width="100%" x="0" y="0.5em"><defs /><text text-anchor="middle" x="50%" y="1em">VP</text></svg><svg width="100%" x="0%" y="4em"><defs /><svg width="100%" x="0" y="0em"><defs /><text text-anchor="middle" x="50%" y="1em">V</text><text text-anchor="middle" x="50%" y="2em">akh</text></svg></svg><line stroke="black" x1="50%" x2="50%" y1="1.7em" y2="4em" /></svg><line stroke="black" x1="50%" x2="31.25%" y1="2.2em" y2="5.5em" /><svg width="37.5%" x="62.5%" y="5em"><defs /><svg width="100%" x="0" y="0em"><defs /><text text-anchor="middle" x="50%" y="1em">v</text><text text-anchor="middle" x="50%" y="2em">a</text></svg></svg><line stroke="black" x1="50%" x2="81.25%" y1="2.2em" y2="5em" /></svg><line stroke="black" x1="50%" x2="69.2308%" y1="1.7em" y2="5em" /></svg><line stroke="black" x1="50%" x2="70.4545%" y1="1.2em" y2="3.5em" /></svg><line stroke="black" x1="50%" x2="39.2857%" y1="1.2em" y2="3em" /><svg width="21.4286%" x="78.5714%" y="3em"><defs /><svg width="100%" x="0" y="0em"><defs /><text text-anchor="middle" x="50%" y="1em">MOOD</text></svg></svg><line stroke="black" x1="50%" x2="89.2857%" y1="1.2em" y2="3em" /></svg>